<svg id="_2325061_american_ecommerce_express_money_pay_icon" data-name="2325061_american_ecommerce_express_money_pay_icon" xmlns="http://www.w3.org/2000/svg" width="38.943" height="29.207" viewBox="0 0 38.943 29.207">
  <path id="Path_15" data-name="Path 15" d="M11.448,11.807H9.414v-.85H11.4v-.872H9.414V9.319h2.034V8.433h-2.9v4.254h2.9Z" transform="translate(5.32 0.383)" fill="#656565"/>
  <path id="Path_16" data-name="Path 16" d="M11.575,11.141h.932c.313,0,.507.032.633.182a1.461,1.461,0,0,1,.137.828l0,.537h.877v-.836a1.386,1.386,0,0,0-.144-.78,1.035,1.035,0,0,0-.43-.358A1.208,1.208,0,0,0,14.2,9.579a1.038,1.038,0,0,0-.439-.942,1.79,1.79,0,0,0-1.053-.2h-2v4.254h.87Zm0-1.82h1.07a.785.785,0,0,1,.412.077.4.4,0,0,1,.182.376.46.46,0,0,1-.179.4.709.709,0,0,1-.43.087H11.574Z" transform="translate(6.665 0.383)" fill="#656565"/>
  <path id="Path_17" data-name="Path 17" d="M9.589,12.688l1.26-3.331,0,3.331h.891V8.434H10.3L9.251,11.32,8.114,8.434H6.695v4.028L5.216,8.434H3.926L2.37,12.688h.944l.337-.949H5.46l.334.949H7.562V9.353l1.262,3.334ZM3.96,10.852l.591-1.7.594,1.7Z" transform="translate(1.475 0.383)" fill="#656565"/>
  <path id="Path_18" data-name="Path 18" d="M14.962,9.481a1.184,1.184,0,0,0-.069.461,1.242,1.242,0,0,0,.069.5.594.594,0,0,0,.171.021l.377-1.03H15.2C15.007,9.428,14.986,9.453,14.962,9.481Z" transform="translate(9.272 1.002)" fill="#656565"/>
  <rect id="Rectangle_22" data-name="Rectangle 22" width="0.887" height="4.254" transform="translate(21.365 8.817)" fill="#656565"/>
  <path id="Path_19" data-name="Path 19" d="M15.7,12.688H16.72l.327-.949h1.8l.339.949h1.769V9.495l1.649,3.193h1.23V8.434h-.889V11.4L21.421,8.434H20.1v4.023L18.626,8.434h-1.3L16.1,11.778h-.39a.761.761,0,0,1-.606-.22,1.642,1.642,0,0,1-.239-1,1.565,1.565,0,0,1,.249-.964.764.764,0,0,1,.669-.252H16.6V8.434h-.841a1.609,1.609,0,0,0-1.32.5,2.525,2.525,0,0,0-.468,1.664,2.368,2.368,0,0,0,.466,1.624A1.66,1.66,0,0,0,15.7,12.688Zm2.252-3.531.6,1.7h-1.2Z" transform="translate(8.701 0.383)" fill="#656565"/>
  <path id="Path_20" data-name="Path 20" d="M15.087,12.946h-2.78L11.2,14.339l-1.07-1.393H6.636V17.2h3.443l1.112-1.408,1.07,1.408H13.95V15.773h1.084c.76,0,1.513-.244,1.513-1.426S15.775,12.946,15.087,12.946ZM9.638,16.314H7.5v-.847H9.41V14.6H7.5v-.773H9.681l.951,1.239Zm3.446.5L11.75,15.079,13.084,13.4Zm1.99-1.9H13.95V13.825h1.133a.471.471,0,0,1,.531.522A.5.5,0,0,1,15.074,14.908Z" transform="translate(4.131 3.192)" fill="#656565"/>
  <path id="Path_21" data-name="Path 21" d="M16.5,14.09a1.04,1.04,0,0,0-.446-.945,1.885,1.885,0,0,0-1.047-.2H13V17.2h.873V15.645H14.8c.317,0,.51.037.637.189a1.441,1.441,0,0,1,.14.833V17.2h.872v-.843a1.39,1.39,0,0,0-.144-.776.961.961,0,0,0-.425-.357A1.206,1.206,0,0,0,16.5,14.09Zm-1.141.6a.73.73,0,0,1-.43.088H13.868v-.956h1.07a.75.75,0,0,1,.415.077.423.423,0,0,1,.18.383A.487.487,0,0,1,15.355,14.694Z" transform="translate(8.092 3.192)" fill="#656565"/>
  <path id="Path_22" data-name="Path 22" d="M19.4,14.615l-.467-.016a.869.869,0,0,1-.339-.048.327.327,0,0,1-.19-.317.346.346,0,0,1,.131-.307.52.52,0,0,1,.348-.077h1.593v-.905H18.738A1.167,1.167,0,0,0,17.5,14.211c0,1.345,1.018,1.285,1.83,1.316a.409.409,0,0,1,.31.094.39.39,0,0,1,.106.281.408.408,0,0,1-.1.277.453.453,0,0,1-.354.105H17.6V17.2h1.692a1.2,1.2,0,0,0,1.366-1.343,1.309,1.309,0,0,0-.261-.9A1.288,1.288,0,0,0,19.4,14.615Z" transform="translate(10.893 3.192)" fill="#656565"/>
  <path id="Path_23" data-name="Path 23" d="M21.59,14.615l-.468-.016a.875.875,0,0,1-.339-.048.329.329,0,0,1-.189-.317.347.347,0,0,1,.131-.307.524.524,0,0,1,.349-.077h1.594v-.905H20.926a1.168,1.168,0,0,0-1.243,1.267c0,1.345,1.019,1.285,1.831,1.316a.412.412,0,0,1,.31.094.4.4,0,0,1,.1.281.415.415,0,0,1-.1.277.456.456,0,0,1-.355.105H19.788V17.2h1.692a1.2,1.2,0,0,0,1.365-1.343,1.3,1.3,0,0,0-.261-.9A1.285,1.285,0,0,0,21.59,14.615Z" transform="translate(12.255 3.192)" fill="#656565"/>
  <path id="Path_24" data-name="Path 24" d="M35.7,3H3.245A3.249,3.249,0,0,0,0,6.245V28.962a3.249,3.249,0,0,0,3.245,3.245H35.7a3.249,3.249,0,0,0,3.245-3.245V6.245A3.249,3.249,0,0,0,35.7,3ZM9.751,16.354l-.114-.3v.017a.658.658,0,0,1-.6.7H7.27a.608.608,0,0,1-.556-.435l-.181-.514H5.526l-.184.517a.607.607,0,0,1-.553.433H3.845a.585.585,0,0,1-.5-.315.808.808,0,0,1-.05-.663L4.85,11.539a.606.606,0,0,1,.552-.426h1.29a.607.607,0,0,1,.552.425l.326.889v-.611a.657.657,0,0,1,.6-.7H9.589a.606.606,0,0,1,.545.408l.568,1.444.516-1.424a.606.606,0,0,1,.552-.429H13.22a.534.534,0,0,1,.324.126.531.531,0,0,1,.324-.126h2.9a.522.522,0,0,1,.3.109.527.527,0,0,1,.3-.109h2a2.239,2.239,0,0,1,1.353.3c.041.029.071.067.108.1a.6.6,0,0,1,.535-.4h.887a.633.633,0,0,1,.583.6,2.17,2.17,0,0,1,1.631-.6h.841a.541.541,0,0,1,.358.139.542.542,0,0,1,.359-.139h1.3a.607.607,0,0,1,.551.426l.319.874v-.6a.658.658,0,0,1,.6-.7h1.323a.586.586,0,0,1,.514.339l.413.8v-.439a.658.658,0,0,1,.6-.7h.889a.657.657,0,0,1,.6.7v4.254a.658.658,0,0,1-.6.7h-1.23a.589.589,0,0,1-.516-.339L30.26,15.4v.671a.658.658,0,0,1-.6.7H27.891a.609.609,0,0,1-.554-.432l-.184-.517h-1l-.177.51a.606.606,0,0,1-.554.44H24.4a2.271,2.271,0,0,1-1.573-.566.627.627,0,0,1-.577.566h-.888a.527.527,0,0,1-.272-.085.515.515,0,0,1-.27.085h-.877a.657.657,0,0,1-.6-.7l0-.537v-.093c0-.057,0-.143,0-.215-.04,0-.093-.006-.169-.006h-.331v.845a.658.658,0,0,1-.6.7h-.87a.529.529,0,0,1-.3-.109.522.522,0,0,1-.3.109h-2.9a.535.535,0,0,1-.324-.126.538.538,0,0,1-.324.126h-.891a.656.656,0,0,1-.6-.7v-.017l-.115.3a.6.6,0,0,1-.549.419H10.3A.6.6,0,0,1,9.751,16.354Zm23.986,7.739h-1.7a.608.608,0,0,1-.552-.427,1.99,1.99,0,0,1-1.306.427H28.49a.524.524,0,0,1-.261-.076.521.521,0,0,1-.26.076h-2.9a.51.51,0,0,1-.266-.079.524.524,0,0,1-.264.079h-.872a.657.657,0,0,1-.6-.7v-.618c0-.06,0-.152,0-.227-.04,0-.1-.006-.176-.006H22.56v.852a.657.657,0,0,1-.6.7h-.873a.657.657,0,0,1-.6-.7V22.309a2.251,2.251,0,0,1-1.321.356h-.483v.725a.657.657,0,0,1-.6.7H16.392a.568.568,0,0,1-.449-.235l-.629-.829-.663.84a.565.565,0,0,1-.44.226H10.767a.658.658,0,0,1-.6-.7V19.137a.657.657,0,0,1,.6-.7h3.495a.561.561,0,0,1,.447.233l.631.822L16,18.658a.563.563,0,0,1,.44-.224h2.776a2.133,2.133,0,0,1,1.341.391.594.594,0,0,1,.531-.391h2.007a2.366,2.366,0,0,1,1.329.283c.045.031.075.071.117.1a.593.593,0,0,1,.529-.388h2.9a.591.591,0,0,1,.518.366,1.794,1.794,0,0,1,1.144-.366H31.37a.612.612,0,0,1,.561.469,1.746,1.746,0,0,1,1.248-.469h1.743a.657.657,0,0,1,.6.7v.905a.737.737,0,0,1-.274.591l.018.021a2.062,2.062,0,0,1,.434,1.395A1.84,1.84,0,0,1,33.737,24.092Z" transform="translate(0 -3)" fill="#656565"/>
  <path id="Path_25" data-name="Path 25" d="M15.45,17.2h2.9v-.882l-2.035,0v-.846H18.3V14.6H16.314v-.774h2.035v-.879h-2.9Z" transform="translate(9.619 3.192)" fill="#656565"/>
</svg>
