<svg xmlns="http://www.w3.org/2000/svg" width="21" height="21" viewBox="0 0 21 21">
  <g id="Component_118_1" data-name="Component 118 – 1" transform="translate(0.5 0.5)">
    <path id="Path_459" data-name="Path 459" d="M21,11A10,10,0,1,1,11,1,10,10,0,0,1,21,11Z" transform="translate(-1 21) rotate(-90)" fill="#929292" stroke="#fff" stroke-width="1"/>
    <path id="Path_460" data-name="Path 460" d="M17.192,9.843l-3.72,3.727,3.72,3.727a.667.667,0,0,1,0,.94h0a.667.667,0,0,1-.94,0L12.012,14a.607.607,0,0,1,0-.853l4.24-4.24a.667.667,0,0,1,.94,0h0A.667.667,0,0,1,17.192,9.843Z" transform="translate(-3.709 25.386) rotate(-90)" fill="#fff"/>
  </g>
</svg>
