<svg id="Component_131_11" data-name="Component 131 – 11" xmlns="http://www.w3.org/2000/svg" width="39" height="39" viewBox="0 0 39 39">
  <rect id="Rectangle_90" data-name="Rectangle 90" width="39" height="39" fill="#ff9800"/>
  <path id="_8542432_shopping_cart_icon_1_" data-name="8542432_shopping_cart_icon (1)" d="M19.856,11.329l1.777-7.82a.9.9,0,0,0-.88-1.1H5.986L5.641.722A.9.9,0,0,0,4.757,0H.9A.9.9,0,0,0,0,.9v.6a.9.9,0,0,0,.9.9H3.53L6.171,15.319a2.106,2.106,0,1,0,2.521.322h7.882a2.1,2.1,0,1,0,2.391-.391l.207-.913a.9.9,0,0,0-.88-1.1H8.2l-.246-1.2H18.977A.9.9,0,0,0,19.856,11.329Z" transform="translate(9.267 10.043)" fill="#fff"/>
</svg>
