<svg id="_2325052_credit_discover_money_online_pay_icon" data-name="2325052_credit_discover_money_online_pay_icon" xmlns="http://www.w3.org/2000/svg" width="38.943" height="29.207" viewBox="0 0 38.943 29.207">
  <path id="Path_34" data-name="Path 34" d="M3.353,9.977H3.094v3.287h.259a1.822,1.822,0,0,0,1.32-.4,1.71,1.71,0,0,0,.534-1.252,1.677,1.677,0,0,0-.534-1.237A1.781,1.781,0,0,0,3.353,9.977Z" transform="translate(1.926 1.344)" fill="#656565"/>
  <path id="Path_35" data-name="Path 35" d="M35.7,3H3.245A3.249,3.249,0,0,0,0,6.245V28.962a3.249,3.249,0,0,0,3.245,3.245H35.7a3.245,3.245,0,0,0,3.245-3.245V6.245A3.249,3.249,0,0,0,35.7,3ZM31.276,13.48h1.43c1.112,0,1.75.537,1.75,1.467a1.32,1.32,0,0,1-1.126,1.409l1.557,2.094H33.7l-1.335-2H32.24v2h-.963V13.48Zm-3.374,0h2.735v.842H28.866v1.1h1.706v.842H28.866v1.342h1.771v.841H27.9V13.48Zm-4.136,0,1.318,3.339,1.336-3.339h1.045l-2.136,5.1h-.519l-2.1-5.1h1.054Zm-16.538,4.4a2.565,2.565,0,0,1-1.764.574H4.057V13.48H5.472a2.462,2.462,0,0,1,2.654,2.489A2.5,2.5,0,0,1,7.229,17.876Zm2.306.574H8.57V13.48h.964v4.97Zm2.075.119A1.919,1.919,0,0,1,9.9,17.623l.623-.6a1.14,1.14,0,0,0,1.053.663.706.706,0,0,0,.749-.7.6.6,0,0,0-.289-.514,3.838,3.838,0,0,0-.667-.283c-.906-.328-1.216-.678-1.216-1.363A1.456,1.456,0,0,1,11.692,13.4a2.157,2.157,0,0,1,1.453.551l-.5.664a1,1,0,0,0-.778-.4c-.416,0-.718.238-.718.551,0,.269.17.411.749.626,1.1.4,1.422.761,1.422,1.551A1.6,1.6,0,0,1,11.61,18.569Zm5.828-3.756a1.612,1.612,0,0,0-1.209-.559,1.648,1.648,0,0,0-1.616,1.707,1.62,1.62,0,0,0,1.661,1.715,1.539,1.539,0,0,0,1.164-.544v1.141a2.655,2.655,0,0,1-1.209.29,2.567,2.567,0,0,1-2.61-2.594,2.607,2.607,0,0,1,2.633-2.6,2.453,2.453,0,0,1,1.186.305v1.141Zm.315,1.169a2.629,2.629,0,1,1,2.63,2.644A2.647,2.647,0,0,1,17.753,15.983ZM37.32,28.962A1.624,1.624,0,0,1,35.7,30.584H20.583A66.425,66.425,0,0,0,37.32,21.763Z" transform="translate(0 -3)" fill="#656565"/>
  <path id="Path_36" data-name="Path 36" d="M21.093,10.678c0-.484-.326-.737-.927-.737h-.3v1.505h.282C20.767,11.446,21.093,11.177,21.093,10.678Z" transform="translate(12.371 1.322)" fill="#656565"/>
</svg>
