<svg id="hk-heckler-amp-koch" xmlns="http://www.w3.org/2000/svg" width="104" height="78.007" viewBox="0 0 104 78.007">
  <g id="hk-heckler-amp-koch-2" data-name="hk-heckler-amp-koch" opacity="0.3" style="mix-blend-mode: luminosity;isolation: isolate">
    <path id="Path_473" data-name="Path 473" d="M100.932,45.974c0-2.267-2.321-4.29-4.83-4.29H85.029L104,16.976H88.2L69.27,41.684V16.976h-16.8V54.56H50.341V16.976H37.336V41.684H18.688V0H0V63.652H18.688V54.56H37.336v9.093h31.98V54.56H87.96v9.093h12.972Z" fill="#ed1c24" fill-rule="evenodd"/>
    <path id="Path_474" data-name="Path 474" d="M1.841,1336.88v3.235H4.489v-3.235H6.372v8.323H4.489v-3.715H1.841v3.715H0v-8.323Z" transform="translate(0 -1267.362)" fill="#231f20"/>
    <path id="Path_475" data-name="Path 475" d="M166.208,1336.88l-.236,1.363h-3.154v1.929h2.636v1.365h-2.612v2.23h3.485v1.436H160.96v-8.323Z" transform="translate(-152.59 -1267.362)" fill="#231f20"/>
    <path id="Path_476" data-name="Path 476" d="M287.145,1335.2a2.6,2.6,0,0,0-1.471-.468,1.97,1.97,0,0,0-1.56.72,3.505,3.505,0,0,0-.52,2.145,4.281,4.281,0,0,0,.384,2.228,1.952,1.952,0,0,0,1.776.932,2.466,2.466,0,0,0,1.576-.539l.847,1.055a4.009,4.009,0,0,1-2.555.78,3.946,3.946,0,0,1-3.008-1.151,4.089,4.089,0,0,1-1.114-2.982,4.933,4.933,0,0,1,.62-2.587,4.282,4.282,0,0,1,5.859-1.268Z" transform="translate(-266.862 -1264.073)" fill="#231f20"/>
    <path id="Path_477" data-name="Path 477" d="M431.944,1336.88v3.8l2.621-3.8h2.281l-2.938,3.855,3.27,4.468H434.74l-2.8-4.348v4.348H430.05v-8.323Z" transform="translate(-407.687 -1267.362)" fill="#231f20"/>
    <path id="Path_478" data-name="Path 478" d="M590.644,1336.88v6.934h3.3l-.331,1.389H588.75v-8.323Z" transform="translate(-558.135 -1267.362)" fill="#231f20"/>
    <path id="Path_479" data-name="Path 479" d="M717.836,1336.88l-.239,1.363h-3.15v1.929h2.635v1.365h-2.609v2.23h3.483v1.436H712.59v-8.323Z" transform="translate(-675.535 -1267.362)" fill="#231f20"/>
    <path id="Path_480" data-name="Path 480" d="M844.429,1336.63a2.833,2.833,0,0,1,1.934.669,2.287,2.287,0,0,1,.771,1.786,2.212,2.212,0,0,1-2.054,2.3,1.77,1.77,0,0,1,.385.349c.531.6,2.212,3.233,2.212,3.233h-2.184c-.355-.554-.5-.78-.862-1.367-.915-1.5-1.206-1.893-1.521-2.033a.8.8,0,0,0-.293-.074v3.475H841v-8.336Zm-1.612,3.6h.624c.794,0,1.137-.073,1.39-.275a1.084,1.084,0,0,0,.358-.836.977.977,0,0,0-.661-1.019,3.532,3.532,0,0,0-1.045-.122h-.668Z" transform="translate(-797.268 -1267.125)" fill="#231f20"/>
    <path id="Path_481" data-name="Path 481" d="M1081.053,1347.425a6.417,6.417,0,0,1-.108,1.294,3.65,3.65,0,0,1-.316,1.006l1.972,1.773h-2.46l-.557-.5a3.943,3.943,0,0,1-2.529.671c-2.119,0-3.324-.826-3.324-2.263a2.227,2.227,0,0,1,1.655-2.073,2.4,2.4,0,0,1-.859-.848,2.3,2.3,0,0,1-.214-.946c0-1.187,1.086-2.013,2.649-2.013,1.579,0,2.692.78,2.692,1.892a1.664,1.664,0,0,1-.455,1.15,3.717,3.717,0,0,1-1.164.742l-.119.06,1.536,1.317a2.436,2.436,0,0,0,.1-.624c.014-.251.014-.419.014-.634Zm-5.431,1.881c0,.756.54,1.185,1.481,1.185a1.99,1.99,0,0,0,1.393-.406l-2.16-1.88a1.2,1.2,0,0,0-.714,1.1m2.172-3.871a.784.784,0,0,0-.823-.8.772.772,0,0,0-.848.776c0,.347.133.54.689,1.055.027.023.065.062.1.1a1.282,1.282,0,0,0,.876-1.128" transform="translate(-1017.896 -1273.657)" fill="#231f20"/>
    <path id="Path_482" data-name="Path 482" d="M1353.33,1336.88v3.8l2.624-3.8h2.28l-2.94,3.855,3.268,4.468h-2.435l-2.8-4.348v4.348h-1.89v-8.323Z" transform="translate(-1281.165 -1267.362)" fill="#231f20"/>
    <path id="Path_483" data-name="Path 483" d="M1504.819,1335.76a4.27,4.27,0,0,1,1.234,3.255,4.126,4.126,0,0,1-2.054,3.956,3.851,3.851,0,0,1-1.845.379,3.55,3.55,0,0,1-2.992-1.171,4.615,4.615,0,0,1-1.062-3.09,4.139,4.139,0,0,1,2.08-3.891,4.456,4.456,0,0,1,1.91-.407,3.916,3.916,0,0,1,2.73.97m-4.188,1.055a4.446,4.446,0,0,0-.462,2.274c0,1.435.278,2.324.821,2.7a1.993,1.993,0,0,0,1.1.284,1.611,1.611,0,0,0,1.1-.348c.5-.43.728-1.29.728-2.657a5.956,5.956,0,0,0-.24-1.928,1.643,1.643,0,0,0-1.612-1.052,1.624,1.624,0,0,0-1.432.728" transform="translate(-1420.199 -1265.381)" fill="#231f20"/>
    <path id="Path_484" data-name="Path 484" d="M1675.271,1335.2a2.583,2.583,0,0,0-1.47-.468,1.977,1.977,0,0,0-1.563.72,3.536,3.536,0,0,0-.515,2.145,4.257,4.257,0,0,0,.385,2.228,1.95,1.95,0,0,0,1.772.932,2.481,2.481,0,0,0,1.58-.539l.848,1.055a4.019,4.019,0,0,1-2.558.78,3.953,3.953,0,0,1-3.007-1.151,4.075,4.075,0,0,1-1.111-2.982,4.924,4.924,0,0,1,.62-2.587,4.281,4.281,0,0,1,5.858-1.268Z" transform="translate(-1582.809 -1264.073)" fill="#231f20"/>
    <path id="Path_485" data-name="Path 485" d="M1820.25,1336.88v3.235h2.65v-3.235h1.882v8.323H1822.9v-3.715h-2.65v3.715h-1.84v-8.323Z" transform="translate(-1723.852 -1267.362)" fill="#231f20"/>
    <path id="Path_486" data-name="Path 486" d="M1816.3,641.57a2.309,2.309,0,1,1-.011,0Zm-.011.347a1.9,1.9,0,0,0,.014,3.8,1.9,1.9,0,0,0,0-3.8Zm-.43,3.205h-.416v-2.506a4.9,4.9,0,0,1,.734-.059,1.4,1.4,0,0,1,.8.188.593.593,0,0,1,.237.52.63.63,0,0,1-.505.61v.02c.227.04.381.24.432.608a2.055,2.055,0,0,0,.168.62h-.436a1.882,1.882,0,0,1-.174-.639.48.48,0,0,0-.558-.439h-.286Zm0-1.387h.3c.34,0,.628-.122.628-.43,0-.219-.163-.438-.628-.438a1.81,1.81,0,0,0-.3.02Z" transform="translate(-1719.662 -608.208)" fill="#ed1c24"/>
  </g>
</svg>
