<svg id="Component_163_1" data-name="Component 163 – 1" xmlns="http://www.w3.org/2000/svg" width="35" height="35" viewBox="0 0 35 35">
  <circle id="Ellipse_14" data-name="Ellipse 14" cx="17.5" cy="17.5" r="17.5" fill="#ff9800"/>
  <path id="Path_495" data-name="Path 495" d="M11,2c2.445,0,2.75.009,3.71.054a6.63,6.63,0,0,1,2.185.419A4.388,4.388,0,0,1,18.49,3.51a4.417,4.417,0,0,1,1.038,1.595,6.649,6.649,0,0,1,.418,2.185C19.988,8.25,20,8.555,20,11s-.009,2.75-.054,3.71a6.654,6.654,0,0,1-.419,2.185A4.6,4.6,0,0,1,16.9,19.528a6.649,6.649,0,0,1-2.185.419C13.75,19.988,13.445,20,11,20s-2.75-.009-3.71-.054a6.654,6.654,0,0,1-2.185-.419A4.6,4.6,0,0,1,2.473,16.9a6.625,6.625,0,0,1-.419-2.185C2.012,13.75,2,13.445,2,11s.009-2.75.054-3.71a6.625,6.625,0,0,1,.419-2.185A4.392,4.392,0,0,1,3.51,3.51,4.407,4.407,0,0,1,5.105,2.473,6.625,6.625,0,0,1,7.29,2.054C8.25,2.012,8.555,2,11,2Zm0,4.5A4.5,4.5,0,1,0,15.5,11,4.5,4.5,0,0,0,11,6.5Zm5.85-.225A1.125,1.125,0,1,0,15.725,7.4,1.125,1.125,0,0,0,16.85,6.275ZM11,8.3A2.7,2.7,0,1,1,8.3,11,2.7,2.7,0,0,1,11,8.3Z" transform="translate(7 7)"/>
</svg>
