<svg xmlns="http://www.w3.org/2000/svg" width="250.37" height="83.266" viewBox="0 0 250.37 83.266">
  <g id="Group_73" data-name="Group 73" transform="translate(-22.897 -41.197)">
    <g id="Group_59" data-name="Group 59" transform="matrix(-0.407, 0.914, -0.914, -0.407, 123.515, 62.401)">
      <g id="Group_58" data-name="Group 58" transform="translate(0 0)">
        <path id="Subtraction_19" data-name="Subtraction 19" d="M24.434,63.436a28.064,28.064,0,0,1-4.226-.317,25.212,25.212,0,0,1-5.628-1.528A22.892,22.892,0,0,1,9.8,58.967,22.361,22.361,0,0,1,6.028,55.54a23.142,23.142,0,0,1-2.9-4.158A25.859,25.859,0,0,1,.163,41.655,32.285,32.285,0,0,1,.98,30.616a39.081,39.081,0,0,1,4.461-10.8,42.78,42.78,0,0,1,7.336-9.13A41.281,41.281,0,0,1,22.459,3.83,35.051,35.051,0,0,1,34.024.233,30.613,30.613,0,0,1,37.757,0a26.414,26.414,0,0,1,7.951,1.188,23.51,23.51,0,0,1,5.166,2.338A22.561,22.561,0,0,1,55.248,7a22.947,22.947,0,0,1,3.515,4.658A24.693,24.693,0,0,1,61.1,17.272a27.928,27.928,0,0,1,1,6.558,32.774,32.774,0,0,1-.573,7.189,37.437,37.437,0,0,1-2.182,7.3,40.72,40.72,0,0,1-3.571,6.751A42.926,42.926,0,0,1,45.508,55.965a40.7,40.7,0,0,1-6.082,3.751,36.777,36.777,0,0,1-6.459,2.509A31.568,31.568,0,0,1,24.434,63.436ZM36.518,3.454c-.751,0-1.521.036-2.289.107A29.033,29.033,0,0,0,24.191,6.454a36.352,36.352,0,0,0-8.709,6,39.541,39.541,0,0,0-6.816,8.267,36.97,36.97,0,0,0-4.313,9.944,30.149,30.149,0,0,0-.991,10.2,22.964,22.964,0,0,0,2.5,8.883,18.817,18.817,0,0,0,5.855,6.717,19.476,19.476,0,0,0,9.1,3.371,23.176,23.176,0,0,0,2.621.148,26.557,26.557,0,0,0,8.36-1.405A34.167,34.167,0,0,0,42.415,52.7a39.225,39.225,0,0,0,8.608-9.65A36.382,36.382,0,0,0,55.982,30.92a27.935,27.935,0,0,0,.032-11.826A20.655,20.655,0,0,0,51.607,10.1,18.473,18.473,0,0,0,43.98,4.763,21.123,21.123,0,0,0,36.518,3.454Z" transform="translate(11.279 14.029)" fill="#ff9800"/>
        <path id="Path_445" data-name="Path 445" d="M30.366,2.01,0,3.142,3.666,0Z" transform="translate(0 43.737)"/>
        <path id="Path_451" data-name="Path 451" d="M0,3.127,32.007,0,26.7,5.136Z" transform="translate(54.565 41.858)"/>
        <path id="Path_452" data-name="Path 452" d="M0,30.905,10.017,0,3.554,5.044Z" transform="translate(45.419 0)"/>
        <path id="Path_446" data-name="Path 446" d="M7.206,0,0,25.861l4.823-3.05Z" transform="translate(31.921 59.665)"/>
        <path id="Path_447" data-name="Path 447" d="M0,7.336H7.094L8.062,0A26.192,26.192,0,0,0,0,7.336Z" transform="translate(29.019 29.673)" fill="#ff9800"/>
        <path id="Path_453" data-name="Path 453" d="M8.062,0H.967L0,7.336A26.2,26.2,0,0,0,8.062,0Z" transform="translate(45.66 54.516)" fill="#ff9800"/>
        <path id="Path_448" data-name="Path 448" d="M0,0H7.39L6.233,8.488S1.693,7.649,0,0Z" transform="translate(25.761 54.547)" fill="#ff9800"/>
        <path id="Path_454" data-name="Path 454" d="M7.39,8.488H0L1.157,0S5.7.839,7.39,8.488Z" transform="translate(49.589 28.49)" fill="#ff9800"/>
        <path id="Path_449" data-name="Path 449" d="M1.342,18.95,0,18.324A35.428,35.428,0,0,1,6.143,9.155a34.438,34.438,0,0,1,6.715-5.593A32.813,32.813,0,0,1,18.271.771,19.3,19.3,0,0,1,20.539,0l.356,1.437a18.55,18.55,0,0,0-2.126.729A31.38,31.38,0,0,0,13.6,4.843,33.433,33.433,0,0,0,1.342,18.95Z" transform="translate(21.051 21.701)" fill="#ff9800"/>
        <path id="Path_455" data-name="Path 455" d="M.357,18.95,0,17.513l.178.718L0,17.513a18.515,18.515,0,0,0,2.126-.73,31.384,31.384,0,0,0,5.167-2.676A33.436,33.436,0,0,0,19.554,0L20.9.626A35.435,35.435,0,0,1,14.752,9.8a34.442,34.442,0,0,1-6.715,5.593,32.806,32.806,0,0,1-5.413,2.79A19.375,19.375,0,0,1,.357,18.95Z" transform="translate(40.793 50.874)"/>
        <path id="Path_450" data-name="Path 450" d="M13.714,19.594a11.537,11.537,0,0,1-2.213-.485,15.439,15.439,0,0,1-2.212-.882,15.331,15.331,0,0,1-2.532-1.564,15.721,15.721,0,0,1-4.709-5.924A20.7,20.7,0,0,1,.535,6.048,29.635,29.635,0,0,1,0,0l1.48.012C1.425,7.113,3.5,12.319,7.655,15.485a13.243,13.243,0,0,0,6.186,2.633Z" transform="translate(17.723 50.841)"/>
        <path id="Path_456" data-name="Path 456" d="M13.84,19.594l-1.48-.012c.056-7.1-2.021-12.307-6.174-15.474A13.243,13.243,0,0,0,0,1.475L.127,0A11.53,11.53,0,0,1,2.34.485a15.424,15.424,0,0,1,2.212.882A15.325,15.325,0,0,1,7.083,2.931a15.717,15.717,0,0,1,4.71,5.924,20.685,20.685,0,0,1,1.513,4.691A29.662,29.662,0,0,1,13.84,19.594Z" transform="translate(51.175 21.089)"/>
        <ellipse id="Ellipse_10" data-name="Ellipse 10" cx="2.866" cy="2.446" rx="2.866" ry="2.446" transform="translate(38.722 46.024) rotate(-47)"/>
      </g>
    </g>
    <path id="Path_455-2" data-name="Path 455" d="M0,0H153.608V28.874H0Z" transform="translate(73.495 63.863)" fill="#f5f5f5"/>
    <text id="Firearms" transform="translate(75.268 88.077)" font-size="29" font-family="FerocityRegular, Ferocity" letter-spacing="0.05em"><tspan x="0" y="0">FIREARMS</tspan></text>
    <text id="Shop" transform="translate(104.679 110.582)" fill="#ff9800" font-size="22" font-family="Blender-Bold, Blender" font-weight="700" letter-spacing="0.1em"><tspan x="0" y="0">SHOP</tspan></text>
  </g>
</svg>
