<svg id="_2325045_credit_mastercard_money_online_pay_icon" data-name="2325045_credit_mastercard_money_online_pay_icon" xmlns="http://www.w3.org/2000/svg" width="38.737" height="29.053" viewBox="0 0 38.737 29.053">
  <path id="Path_28" data-name="Path 28" d="M12.276,16.752a.606.606,0,0,0-.626.571h1.222A.585.585,0,0,0,12.276,16.752Z" transform="translate(7.154 5.444)" fill="#656565"/>
  <path id="Path_29" data-name="Path 29" d="M7.635,16.767a.755.755,0,1,0,.709.754A.706.706,0,0,0,7.635,16.767Z" transform="translate(4.249 5.454)" fill="#656565"/>
  <path id="Path_30" data-name="Path 30" d="M16.588,16.767a.755.755,0,1,0,.709.754A.706.706,0,0,0,16.588,16.767Z" transform="translate(9.747 5.454)" fill="#656565"/>
  <path id="Path_31" data-name="Path 31" d="M35.509,3H3.228A3.231,3.231,0,0,0,0,6.228v22.6a3.231,3.231,0,0,0,3.228,3.228H35.509a3.231,3.231,0,0,0,3.228-3.228V6.228A3.231,3.231,0,0,0,35.509,3ZM10.19,27.152H9.673v-1.31c0-.4-.167-.621-.517-.621a.555.555,0,0,0-.576.626v1.305H8.062v-1.31c0-.4-.172-.621-.512-.621a.551.551,0,0,0-.576.626v1.305H6.456V24.8h.512v.291a.779.779,0,0,1,.69-.35.865.865,0,0,1,.778.419.912.912,0,0,1,.827-.419.876.876,0,0,1,.926.936v1.478Zm2.886-1.177v1.177h-.512v-.286a.893.893,0,0,1-.744.345,1.238,1.238,0,0,1,0-2.473.893.893,0,0,1,.744.345V24.8h.512v1.177Zm1.517,1.237a1.7,1.7,0,0,1-1.02-.305l.241-.4a1.254,1.254,0,0,0,.783.246c.35,0,.537-.1.537-.286,0-.133-.133-.207-.414-.246l-.241-.034c-.527-.074-.813-.31-.813-.695,0-.468.384-.754.98-.754a1.761,1.761,0,0,1,.961.246l-.222.414a1.518,1.518,0,0,0-.734-.2c-.281,0-.448.1-.448.276s.177.2.4.232l.241.034c.512.074.823.291.823.7C15.667,26.89,15.273,27.211,14.593,27.211Zm2.714,0c-.606,0-.818-.325-.818-.872V25.265h-.478V24.8h.478v-.714h.517V24.8h.837v.468h-.837v1.064c0,.236.084.394.34.394a.946.946,0,0,0,.453-.133l.148.438A1.2,1.2,0,0,1,17.307,27.211Zm3.241-1.039H18.8a.654.654,0,0,0,.7.576,1.122,1.122,0,0,0,.685-.246l.251.379a1.431,1.431,0,0,1-.965.33,1.237,1.237,0,0,1-.034-2.473,1.129,1.129,0,0,1,1.118,1.236C20.558,26.043,20.553,26.107,20.548,26.171Zm1.872-.886a.834.834,0,0,0-.32-.059c-.335,0-.5.217-.5.606v1.32h-.512V24.8h.507v.286a.694.694,0,0,1,.621-.345,1.1,1.1,0,0,1,.365.064Zm1.552,1.443a1.034,1.034,0,0,0,.616-.212l.246.414a1.233,1.233,0,0,1-.847.281,1.236,1.236,0,1,1,0-2.473,1.233,1.233,0,0,1,.847.281l-.246.414a1.035,1.035,0,0,0-.616-.212.755.755,0,0,0,0,1.507Zm3.556-.754v1.177h-.512v-.286a.893.893,0,0,1-.744.345,1.238,1.238,0,0,1,0-2.473.893.893,0,0,1,.744.345V24.8h.512v1.177Zm2.01-.689a.835.835,0,0,0-.32-.059c-.335,0-.5.217-.5.606v1.32H28.2V24.8h.507v.286a.694.694,0,0,1,.621-.345,1.1,1.1,0,0,1,.365.064Zm2.744.689v1.177h-.512v-.286a.893.893,0,0,1-.744.345,1.238,1.238,0,0,1,0-2.473.893.893,0,0,1,.744.345V23.851h.512Zm-7.667-2.8a7.621,7.621,0,0,1-5.246-2.105,7.667,7.667,0,1,1,0-11.123,7.658,7.658,0,1,1,5.246,13.228Z" transform="translate(0 -3)" fill="#656565"/>
  <path id="Path_32" data-name="Path 32" d="M19.533,16.767a.755.755,0,1,0,.709.754A.706.706,0,0,0,19.533,16.767Z" transform="translate(11.556 5.454)" fill="#656565"/>
  <path id="Path_33" data-name="Path 33" d="M12.921,7.3a7.6,7.6,0,0,0,0,11.123,7.6,7.6,0,0,0,0-11.123Z" transform="translate(6.447 -0.357)" fill="#656565"/>
</svg>
