<svg xmlns="http://www.w3.org/2000/svg" width="36.25" height="29" viewBox="0 0 36.25 29">
  <path id="_8542234_shipping_fast_icon" data-name="8542234_shipping_fast_icon" d="M35.344,19.937h-.906V13.815a2.719,2.719,0,0,0-.8-1.92L27.98,6.236a2.719,2.719,0,0,0-1.92-.8h-2.5V2.719A2.719,2.719,0,0,0,20.844,0H6.344A2.719,2.719,0,0,0,3.625,2.719V5.437H.453A.454.454,0,0,0,0,5.891V6.8a.454.454,0,0,0,.453.453H15.859a.454.454,0,0,1,.453.453v.906a.454.454,0,0,1-.453.453H2.266a.454.454,0,0,0-.453.453v.906a.454.454,0,0,0,.453.453H14.047a.454.454,0,0,1,.453.453v.906a.454.454,0,0,1-.453.453H.453A.454.454,0,0,0,0,13.141v.906a.454.454,0,0,0,.453.453H12.234a.454.454,0,0,1,.453.453v.906a.454.454,0,0,1-.453.453H3.625v7.25a5.437,5.437,0,1,0,10.875,0h7.25a5.437,5.437,0,1,0,10.875,0h2.719a.909.909,0,0,0,.906-.906V20.844A.909.909,0,0,0,35.344,19.937ZM9.062,26.281a2.719,2.719,0,1,1,2.719-2.719A2.719,2.719,0,0,1,9.062,26.281Zm18.125,0a2.719,2.719,0,1,1,2.719-2.719A2.719,2.719,0,0,1,27.187,26.281ZM31.719,14.5H23.562V8.156h2.5l5.658,5.658Z"/>
</svg>
