<svg id="Component_162_1" data-name="Component 162 – 1" xmlns="http://www.w3.org/2000/svg" width="35" height="35" viewBox="0 0 35 35">
  <circle id="Ellipse_13" data-name="Ellipse 13" cx="17.5" cy="17.5" r="17.5" fill="#ff9800"/>
  <path id="_104501_twitter_bird_icon_2_" data-name="104501_twitter_bird_icon (2)" d="M21.574,12.058a7.348,7.348,0,0,1-2.121.581A3.7,3.7,0,0,0,21.077,10.6a7.392,7.392,0,0,1-2.345.9,3.7,3.7,0,0,0-6.292,3.368A10.485,10.485,0,0,1,4.827,11,3.7,3.7,0,0,0,5.97,15.932,3.682,3.682,0,0,1,4.3,15.47c0,.015,0,.031,0,.047A3.7,3.7,0,0,0,7.26,19.138a3.713,3.713,0,0,1-.973.129,3.659,3.659,0,0,1-.695-.066,3.7,3.7,0,0,0,3.45,2.565,7.452,7.452,0,0,1-5.467,1.529,10.5,10.5,0,0,0,16.168-8.848q0-.24-.01-.478A7.48,7.48,0,0,0,21.574,12.058Z" transform="translate(5.426 -0.326)"/>
</svg>
