<svg id="_2325025_card_money_online_pay_payments_icon" data-name="2325025_card_money_online_pay_payments_icon" xmlns="http://www.w3.org/2000/svg" width="38.943" height="29.207" viewBox="0 0 38.943 29.207">
  <path id="Path_26" data-name="Path 26" d="M35.7,3H3.245A3.248,3.248,0,0,0,0,6.245V28.962a3.248,3.248,0,0,0,3.245,3.245H35.7a3.248,3.248,0,0,0,3.245-3.245V6.245A3.248,3.248,0,0,0,35.7,3ZM8.116,14.521a.21.21,0,0,1,.21-.163h0l2.008,0h.008a.783.783,0,0,1,.827.521l0,.01.356,1.554a.194.194,0,0,1-.12.22.228.228,0,0,1-.089.018.22.22,0,0,1-.17-.078,6.261,6.261,0,0,0-2.9-1.865A.2.2,0,0,1,8.116,14.521Zm4.729,6.318-1.723,0h0a.212.212,0,0,1-.205-.142l-1.5-4.717a.19.19,0,0,1,.084-.218.228.228,0,0,1,.251.006,6.865,6.865,0,0,1,2.137,2.342.151.151,0,0,1,.01.026l.2.654,1.82-4.291a.214.214,0,0,1,.2-.125h1.556a.219.219,0,0,1,.178.089.184.184,0,0,1,.018.186L13.041,20.72A.215.215,0,0,1,12.845,20.839Zm4.673-.157a.209.209,0,0,1-.211.164H15.829a.221.221,0,0,1-.163-.07.187.187,0,0,1-.047-.16l1.123-6.082a.209.209,0,0,1,.211-.164h1.48a.221.221,0,0,1,.163.07.187.187,0,0,1,.047.16ZM22.511,17c1.059.442,1.552.981,1.544,1.693-.014,1.3-1.274,2.133-3.211,2.133h0a6.751,6.751,0,0,1-1.884-.271.2.2,0,0,1-.14-.219L19,19.344a.2.2,0,0,1,.108-.139.229.229,0,0,1,.185-.01,4.174,4.174,0,0,0,1.728.324c.528,0,1.1-.191,1.1-.609,0-.274-.238-.469-.955-.774-.7-.3-1.628-.8-1.616-1.7.01-1.212,1.292-2.06,3.118-2.06a5.266,5.266,0,0,1,1.476.206.2.2,0,0,1,.146.221l-.173.938a.2.2,0,0,1-.1.138.229.229,0,0,1-.182.013,3.606,3.606,0,0,0-1.246-.212h-.056c-.7,0-1.061.269-1.061.535C21.466,16.512,21.863,16.705,22.511,17Zm8.271,3.779a.221.221,0,0,1-.166.074H29.279a.21.21,0,0,1-.209-.155c-.045-.188-.153-.643-.2-.815h-2.45c-.04.094-.161.387-.349.845a.214.214,0,0,1-.2.127H24.341a.219.219,0,0,1-.179-.09.184.184,0,0,1-.016-.187l2.708-5.658a.961.961,0,0,1,1-.537h1.306a.21.21,0,0,1,.209.155l1.454,6.078A.186.186,0,0,1,30.782,20.775Z" transform="translate(0 -3)" fill="#656565"/>
  <path id="Path_27" data-name="Path 27" d="M17.641,11.087l-1.017,2.428h1.589l-.443-1.869Z" transform="translate(10.35 2.035)" fill="#656565"/>
</svg>
