<svg id="Component_164_1" data-name="Component 164 – 1" xmlns="http://www.w3.org/2000/svg" width="35" height="35" viewBox="0 0 35 35">
  <path id="Path_611" data-name="Path 611" d="M17.5,0A17.5,17.5,0,1,1,0,17.5,17.5,17.5,0,0,1,17.5,0Z" fill="#ff9800"/>
  <g id="_2559760_media_social_video_youtube_icon_1_" data-name="2559760_media_social_video_youtube_icon (1)" transform="translate(8.5 7.5)">
    <path id="Path_496" data-name="Path 496" d="M18.4,6.483a3.994,3.994,0,0,0-.785-1.963,2.456,2.456,0,0,0-1.884-.864h-.079C13.218,3.5,9.607,3.5,9.528,3.5c0,0-3.69,0-6.124.157H3.326a2.456,2.456,0,0,0-1.884.864A4.486,4.486,0,0,0,.657,6.562C.657,6.64.5,8.053.5,9.545V10.88c0,1.492.157,2.9.157,2.983a4,4,0,0,0,.785,1.963,2.871,2.871,0,0,0,1.884.864h.236c1.413.157,5.731.157,5.888.157h0s3.69,0,6.124-.157h.079a3.215,3.215,0,0,0,1.884-.864,4.486,4.486,0,0,0,.785-2.041c0-.079.157-1.492.157-2.983V9.467A23.232,23.232,0,0,0,18.4,6.483ZM12.59,10.33,7.88,12.842c-.079,0-.079.079-.157.079s-.157,0-.157-.079a.408.408,0,0,1-.157-.314v-5.1a.408.408,0,0,1,.157-.314.35.35,0,0,1,.393,0l4.71,2.512c.157.079.236.157.236.314A.522.522,0,0,1,12.59,10.33Z" transform="translate(0 0)"/>
  </g>
</svg>
